<?xml version="1.0" standalone="no"?>
<!DOCTYPE svg PUBLIC "-//W3C//DTD SVG 20010904//EN"
 "http://www.w3.org/TR/2001/REC-SVG-20010904/DTD/svg10.dtd">
<svg version="1.0" xmlns="http://www.w3.org/2000/svg"
 width="675.000000pt" height="368.000000pt" viewBox="0 0 675.000000 368.000000"
 preserveAspectRatio="xMidYMid meet">
<metadata>
Created by potrace 1.16, written by Peter Selinger 2001-2019
</metadata>
<g transform="translate(0.000000,368.000000) scale(0.100000,-0.100000)"
fill="#000000" stroke="none">
<path d="M7 3188 c6 -7 327 -434 714 -948 387 -514 710 -941 717 -950 58 -67
-92 135 -716 963 -392 521 -716 947 -719 947 -3 0 -1 -6 4 -12z"/>
<path d="M4855 2415 l0 -300 574 0 c457 0 575 3 577 13 1 7 0 8 -3 2 -3 -7
-195 -10 -574 -10 l-569 0 -3 298 -2 297 0 -300z"/>
<path d="M4875 2413 l0 -278 553 0 552 0 -550 2 -550 3 -3 275 -2 275 0 -277z"/>
<path d="M2469 2668 c12 -17 76 -18 997 -20 541 -2 984 0 984 5 0 4 -442 7
-983 7 -772 0 -986 3 -997 13 -12 10 -12 9 -1 -5z"/>
<path d="M2982 2673 c274 -2 722 -2 995 0 274 1 50 2 -497 2 -547 0 -771 -1
-498 -2z"/>
<path d="M5598 1593 l1132 -3 0 -130 c0 -72 3 -130 8 -130 4 0 6 61 4 135 l-3
135 -1137 -2 -1137 -3 1133 -2z"/>
<path d="M5013 1573 c312 -2 822 -2 1135 0 312 1 56 2 -568 2 -624 0 -880 -1
-567 -2z"/>
<path d="M4100 1555 c0 -12 -19 -15 -107 -15 l-108 0 0 -175 0 -175 93 0 c54
0 92 4 92 10 0 6 -35 10 -85 10 l-86 0 3 158 3 157 138 0 c75 0 137 -2 138 -5
6 -32 4 -66 -5 -72 -7 -5 -8 -8 0 -8 7 0 11 -31 11 -85 0 -47 -4 -85 -9 -85
-14 0 -5 -73 10 -78 9 -3 12 39 12 187 l0 191 -50 0 c-38 0 -50 -4 -50 -15z"/>
<path d="M6730 360 l0 -270 -2212 0 c-2092 0 -2213 1 -2232 17 -21 18 -21 18
-2 -5 l19 -22 2218 0 2218 0 3 275 c2 151 0 275 -4 275 -5 0 -8 -121 -8 -270z"/>
<path d="M2430 313 c-1 -24 -4 -47 -5 -53 -1 -5 -3 -42 -4 -81 l-1 -71 -59 4
c-33 1 -57 0 -54 -4 2 -5 994 -8 2204 -8 1886 0 2198 2 2187 14 -7 8 -14 10
-16 5 -2 -5 -37 -9 -78 -9 l-74 0 0 123 c-1 106 -2 120 -15 104 -10 -14 -24
-18 -54 -16 -22 2 -43 0 -47 -4 -4 -4 18 -7 49 -7 l57 0 0 -100 0 -100 -90 0
-90 0 1 103 c1 71 4 91 9 67 l7 -35 2 38 1 37 -67 -2 c-64 -2 -65 -2 -15 -5
l52 -4 0 -100 0 -100 -87 3 c-87 3 -88 3 -86 28 2 22 1 23 -8 7 -5 -9 -7 -22
-4 -27 4 -6 -27 -10 -84 -10 l-91 0 1 103 c1 71 4 91 9 67 l7 -35 2 37 c0 20
-2 38 -6 40 -5 2 -35 1 -68 -3 l-60 -6 53 -1 52 -2 0 -100 0 -100 -88 0 -88 0
0 74 c1 41 4 72 9 69 4 -2 7 12 7 31 l0 36 -67 -2 c-64 -2 -65 -2 -15 -5 l52
-4 0 -100 0 -99 -85 0 -85 0 1 103 c1 71 4 91 9 67 l7 -35 2 38 1 37 -72 -2
c-70 -2 -71 -2 -15 -5 l57 -4 0 -99 0 -100 -90 0 -90 0 1 103 c1 71 4 91 9 67
l7 -35 2 38 1 37 -67 -2 c-64 -2 -65 -2 -15 -5 l52 -4 0 -100 0 -99 -86 0 -85
0 3 104 3 105 -58 3 c-33 2 -61 0 -64 -5 -2 -4 20 -7 50 -7 l53 0 0 -100 0
-100 -88 0 -88 0 1 103 c1 71 4 91 9 67 l7 -35 2 37 c0 20 -2 38 -6 40 -5 2
-35 1 -68 -3 l-60 -6 53 -1 52 -2 0 -100 0 -100 -180 0 -180 0 1 103 c1 71 4
91 9 67 l7 -35 2 38 1 37 -72 -2 c-70 -2 -71 -2 -15 -5 l57 -4 0 -99 0 -100
-90 0 -90 0 1 103 c1 71 4 91 9 67 l7 -35 2 38 1 37 -67 -2 c-64 -2 -65 -2
-15 -5 l52 -4 0 -100 0 -99 -85 0 -85 0 0 99 c0 70 4 101 13 104 6 2 -19 6
-57 8 -37 2 -73 1 -80 -3 -6 -4 16 -8 50 -8 l60 0 0 -97 -1 -98 -87 -3 -88 -3
1 103 c1 75 4 93 9 68 l8 -35 -1 40 c-2 28 -6 40 -17 40 -13 0 -14 -17 -11
-107 l3 -108 -181 0 -181 0 0 100 0 99 58 4 57 3 -67 2 -68 2 7 -105 6 -105
-91 0 -91 0 2 98 2 97 60 6 60 6 -62 1 c-35 1 -66 1 -70 0 -5 -2 -6 -49 -4
-105 l3 -103 -86 0 -86 0 0 100 0 99 58 4 57 3 -68 2 -68 2 7 -105 7 -105 -92
0 -91 0 0 100 0 100 58 2 57 1 -60 6 c-33 4 -63 5 -67 3 -4 -2 -5 -50 -1 -108
l6 -104 -86 0 -87 0 0 100 0 100 56 0 c30 0 53 3 51 7 -3 5 -38 6 -79 4 -40
-2 -67 -6 -60 -8 8 -3 12 -34 12 -104 l0 -99 -85 0 -85 0 0 100 0 99 58 4 57
3 -67 2 -68 2 7 -105 6 -105 -86 0 -87 0 0 100 0 100 56 0 c30 0 53 3 51 8 -3
4 -34 6 -69 4 l-63 -3 3 -105 3 -104 -88 0 -88 0 -2 32 c-1 18 1 63 4 100 l5
67 56 4 57 3 -57 2 c-44 2 -58 6 -61 20 -3 9 -6 -2 -7 -25z"/>
</g>
</svg>
